<svg id="Layer_1" data-name="Layer 1" xmlns="http://www.w3.org/2000/svg" viewBox="0 0 279.00012 198">
  <g>
    <path d="M72,94.5v45a4.5,4.5,0,0,0,9,0V126h29.63574l16.68213,16.68213a4.50021,4.50021,0,0,0,6.36426-6.36426l-10.44287-10.44293A13.51117,13.51117,0,0,0,135,112.5v-18A13.51539,13.51539,0,0,0,121.5,81h-36A13.51539,13.51539,0,0,0,72,94.5Zm9,0A4.50491,4.50491,0,0,1,85.5,90h36a4.50491,4.50491,0,0,1,4.5,4.5v18a4.50491,4.50491,0,0,1-4.5,4.5H81V94.5Z"/>
    <path d="M63,130.5v-9a13.43,13.43,0,0,0-3.46631-9A13.43,13.43,0,0,0,63,103.5v-9A13.51539,13.51539,0,0,0,49.5,81h-36A13.51539,13.51539,0,0,0,0,94.5v36A13.51539,13.51539,0,0,0,13.5,144h36A13.51539,13.51539,0,0,0,63,130.5ZM9,94.5A4.50491,4.50491,0,0,1,13.5,90h36A4.50491,4.50491,0,0,1,54,94.5v9a4.50491,4.50491,0,0,1-4.5,4.5H9Zm0,36V117H49.5a4.50491,4.50491,0,0,1,4.5,4.5v9a4.50491,4.50491,0,0,1-4.5,4.5h-36A4.50491,4.50491,0,0,1,9,130.5Z"/>
    <path d="M157.5,90h45a4.5,4.5,0,0,0,0-9h-45A13.51539,13.51539,0,0,0,144,94.5v36A13.51539,13.51539,0,0,0,157.5,144h36A13.51539,13.51539,0,0,0,207,130.5v-18a4.49991,4.49991,0,0,0-4.5-4.5h-36a4.5,4.5,0,0,0,0,9H198v13.5a4.50491,4.50491,0,0,1-4.5,4.5h-36a4.50491,4.50491,0,0,1-4.5-4.5v-36A4.50491,4.50491,0,0,1,157.5,90Z"/>
    <path d="M277.68213,136.31787l-10.44287-10.44293A13.51117,13.51117,0,0,0,279,112.5v-18A13.51539,13.51539,0,0,0,265.5,81h-36A13.51539,13.51539,0,0,0,216,94.5v45a4.5,4.5,0,0,0,9,0V126h29.63574l16.68213,16.68213a4.50021,4.50021,0,0,0,6.36426-6.36426ZM225,112.5v-18a4.50491,4.50491,0,0,1,4.5-4.5h36a4.50491,4.50491,0,0,1,4.5,4.5v18a4.50491,4.50491,0,0,1-4.5,4.5H225Z"/>
    <path d="M22.5,63A4.49991,4.49991,0,0,0,27,58.5,49.556,49.556,0,0,1,76.5,9h126A49.556,49.556,0,0,1,252,58.5a4.5,4.5,0,0,0,9,0A58.56647,58.56647,0,0,0,202.5,0H76.5A58.56647,58.56647,0,0,0,18,58.5,4.49991,4.49991,0,0,0,22.5,63Z"/>
    <path d="M256.5,162a4.49991,4.49991,0,0,0-4.5,4.5A22.52523,22.52523,0,0,1,229.5,189H49.5A22.52523,22.52523,0,0,1,27,166.5a4.5,4.5,0,0,0-9,0A31.5357,31.5357,0,0,0,49.5,198h180A31.5357,31.5357,0,0,0,261,166.5,4.49991,4.49991,0,0,0,256.5,162Z"/>
    <circle cx="189" cy="36" r="4.5"/>
    <circle cx="207" cy="54" r="4.5"/>
    <circle cx="171" cy="54" r="4.5"/>
    <circle cx="135" cy="54" r="4.5"/>
    <circle cx="99" cy="54" r="4.5"/>
    <circle cx="63" cy="54" r="4.5"/>
    <circle cx="153" cy="36" r="4.5"/>
    <circle cx="117" cy="36" r="4.5"/>
    <circle cx="81" cy="36" r="4.5"/>
  </g>
</svg>
